<?xml version="1.0" encoding="UTF-8"?>
<svg id="_레이어_2" data-name="레이어 2" xmlns="http://www.w3.org/2000/svg" viewBox="0 0 157 157">
  <defs>
    <style>
      .cls-1 {
        fill: #020303;
      }

      .cls-2 {
        fill: #fae200;
      }
    </style>
  </defs>
  <g id="_레이어_1-2" data-name="레이어 1">
    <circle class="cls-2" cx="78.5" cy="78.5" r="78.5"/>
    <path class="cls-1" d="m78.22,31.05c-25.72,0-46.57,19.28-46.57,43.07,0,17.57,7.36,25.96,17.44,33.6l.05.02v20.62c0,.98,1.11,1.53,1.89.95l17.66-13.11.38.16c2.96.55,6.02.83,9.15.83,25.72,0,46.56-19.28,46.56-43.07s-20.85-43.07-46.56-43.07m-15.61,53.98c4.57,0,8.47-2.73,9.65-6.95h6.75c-1.65,8.12-7.97,13.45-16.39,13.45-9.79,0-17.55-7.3-17.55-17.46s7.76-17.46,17.55-17.46c8.51,0,14.87,5.43,16.44,13.7h-6.73c-1.02-4.49-5.06-7.29-9.71-7.29-6.58,0-10.96,4.69-10.96,11.05s4.98,10.96,10.96,10.96m44.49,5.83h-6.19v-13.96c0-3.21-1.87-4.94-4.75-4.94-3.21,0-5.28,1.97-5.28,5.95v12.95h-6.19v-34.14h6.19v12.84c1.48-2.25,3.88-3.36,7.14-3.36,2.64,0,4.8.86,6.47,2.64,1.73,1.77,2.59,4.17,2.59,7.29v14.73Z"/>
  </g>
</svg>